# AST/ASF file generated using VICON BodyLanguage
# -----------------------------------------------
:version 1.10
:name VICON
:units
  mass 1.0
  length 0.45
  angle deg
:documentation
   .ast/.asf automatically generated from VICON data using
   VICON BodyBuilder and BodyLanguage model FoxedUp or BRILLIANT.MOD
:root
   order TX TY TZ RX RY RZ
   axis XYZ
   position 0 0 0  
   orientation 0 0 0 
:bonedata
  begin
     id 1 
     name lhipjoint
     direction 0.677091 -0.635792 0.370561 
     length 2.74323 
     axis 0 0 0  XYZ
  end
  begin
     id 2 
     name lfemur
     direction 0.34202 -0.939693 0  
     length 7.44995  
     axis 0 0 20  XYZ
    dof rx ry rz
    limits (-160.0 20.0)
           (-70.0 70.0)
           (-60.0 70.0)
  end
  begin
     id 3 
     name ltibia
     direction 0.34202 -0.939693 0   
     length 7.34467   
     axis 0 0 20   XYZ
    dof rx
    limits (-10.0 170.0)
  end
  begin
     id 4 
     name lfoot
     direction 0.101953 -0.280114 0.954537   
     length 1.72105   
     axis -90 7.62852e-016 20   XYZ
    dof rx rz
    limits (-45.0 90.0)
           (-70.0 20.0)
  end
  begin
     id 5 
     name ltoes
     direction 1.53537e-011 -4.21915e-011 1   
     length 0.865872   
     axis -90 7.62852e-016 20   XYZ
    dof rx
    limits (-90.0 20.0)
  end
  begin
     id 6 
     name rhipjoint
     direction -0.695735 -0.620586 0.361699   
     length 2.81045  
     axis 0 0 0  XYZ 
  end
  begin
     id 7 
     name rfemur
     direction -0.34202 -0.939693 0   
     length 7.29387   
     axis 0 0 -20   XYZ
    dof rx ry rz
    limits (-160.0 20.0)
           (-70.0 70.0)
           (-70.0 60.0)
  end
  begin
     id 8 
     name rtibia
     direction -0.34202 -0.939693 0   
     length 7.44935   
     axis 0 0 -20   XYZ
    dof rx
    limits (-10.0 170.0)
 end
 begin
     id 9 
     name rfoot
     direction -0.104163 -0.286184 0.952496   
     length 1.77731  
     axis -90 -7.62852e-016 -20   XYZ
    dof rx rz
    limits (-45.0 90.0)
           (-20.0 70.0)
  end
  begin
     id 10 
     name rtoes
     direction -1.5355e-011 -4.21888e-011 1   
     length 0.892424   
     axis -90 -7.62852e-016 -20   XYZ
    dof rx
    limits (-90.0 20.0)
  end
  begin
     id 11 
     name lowerback
     direction 0.0100202 0.997226 -0.0737589   
     length 2.16892   
     axis 0 0 0   XYZ
    dof rx ry rz
    limits (-20.0 45.0)
           (-30.0 30.0)
           (-30.0 30.0)
  end
  begin
     id 12 
     name upperback
     direction 0.00432398 0.999988 -0.00215019   
     length 2.17326   
     axis 0 0 0   XYZ
    dof rx ry rz
    limits (-20.0 45.0)
           (-30.0 30.0)
           (-30.0 30.0)
  end
  begin
     id 13 
     name thorax
     direction -0.00195047 0.999485 0.0320434   
     length 2.18139   
     axis 0 0 0   XYZ
    dof rx ry rz
    limits (-20.0 45.0)
           (-30.0 30.0)
           (-30.0 30.0)
  end
  begin
     id 14 
     name lowerneck
     direction 0.00782762 0.986241 0.165128   
     length 1.88415   
     axis 0 0 0   XYZ
    dof rx ry rz
    limits (-20.0 45.0)
           (-30.0 30.0)
           (-30.0 30.0)
  end
  begin
     id 15 
     name upperneck
     direction 0.00988667 0.981098 -0.193258   
     length 1.9242   
     axis 0 0 0   XYZ
    dof rx ry rz
    limits (-20.0 45.0)
           (-30.0 30.0)
           (-30.0 30.0)
  end
  begin
     id 16
     name head
     direction 0.00252199 0.996513 -0.0833958  
     length 1.93887  
     axis 0 0 0   XYZ
    dof rx ry rz
    limits (-20.0 45.0)
           (-30.0 30.0)
           (-30.0 30.0)
  end
  begin
     id 17 
     name lclavicle
     direction 0.929492 0.368193 -0.0218667  
     length 3.5955  
     axis 0 0 0   XYZ
    dof ry rz
    limits (-20.0 10.0)
           (0.0 20.0)
  end
  begin
     id 18 
     name lhumerus
     direction 1 -4.48972e-011 1.41911e-027   
     length 5.2795   
     axis 180 -30 -90   XYZ
    dof rx ry rz
    limits (-60.0 90.0)
           (-90.0 90.0)
           (-90.0 90.0)
  end
  begin
     id 19
     name lradius
     direction 1 -4.48963e-011 7.05772e-027   
     length 3.53504   
     axis 180 -30 -90   XYZ
    dof rx
    limits (-10.0 170.0)
  end
  begin
     id 20
     name lwrist
     direction 1 -4.48957e-011 9.54866e-027   
     length 1.76752   
     axis -7.69462e-015 90 90   XYZ
    dof ry
    limits (-180.0 0.0)
 end
  begin
     id 21 
     name lhand
     direction 1 -4.48979e-011 1.90973e-026   
     length 0.667948   
     axis -1.21857e-014 90 90   XYZ
    dof rx rz
    limits (-90.0 90.0)
           (-45.0 45.0)
  end
  begin
     id 22 
     name lfingers
     direction 1 -4.48987e-011 3.81946e-026   
     length 0.538517   
     axis -2.43714e-014 90 90   XYZ
    dof rx
    limits (0.0 90.0)
  end
  begin
     id 23
     name lthumb
     direction 0.707107 -6.34962e-011 0.707107   
     length 0.773206   
     axis -90 45 2.85299e-015   XYZ
    dof rx rz
    limits (-45.0 45.0)
           (-45.0 45.0)
  end
  begin
     id 24 
     name rclavicle
     direction -0.898763 0.414256 -0.143584   
     length 3.5176  
     axis 0 0 0   XYZ 
    dof ry rz
    limits (-10.0 20.0)
           (-20.0 0.0)
  end
  begin
     id 25 
     name rhumerus
     direction -1 -4.48971e-011 1.129e-027  
     length 5.25035   
     axis 180 30 90   XYZ
    dof rx ry rz
    limits (-90.0 60.0)
           (-90.0 90.0)
           (-90.0 90.0)
  end
  begin
     id 26 
     name rradius
     direction -1 -4.48955e-011 6.34664e-027   
     length 3.58884   
     axis 180 30 90   XYZ
    dof rx
    limits (-10.0 170.0)
  end
  begin
     id 27 
     name rwrist
     direction -1 -4.48966e-011 9.54866e-027   
     length 1.79442   
     axis -7.69462e-015 -90 -90   XYZ
    dof ry
    limits (-180.0 0.0)
  end
  begin
     id 28
     name rhand
     direction -1 -4.48973e-011 1.90973e-026   
     length 0.779235   
     axis -1.21857e-014 -90 -90   XYZ
    dof rx rz
    limits (-90.0 90.0)
           (-45.0 45.0)
  end
  begin
     id 29
     name rfingers
     direction -1 -4.48984e-011 3.81946e-026   
     length 0.62824   
     axis -2.43714e-014 -90 -90   XYZ
    dof rx
    limits (0.0 90.0)
  end
  begin
     id 30
     name rthumb
     direction -0.707107 -6.34968e-011 0.707107   
     length 0.90203   
     axis -90 -45 -2.85299e-015   XYZ
    dof rx rz
    limits (-45.0 45.0)
           (-45.0 45.0)
  end
:hierarchy
  begin
    root lhipjoint rhipjoint lowerback
    lhipjoint lfemur
    lfemur ltibia
    ltibia lfoot
    lfoot ltoes
    rhipjoint rfemur
    rfemur rtibia
    rtibia rfoot
    rfoot rtoes
    lowerback upperback
    upperback thorax
    thorax lowerneck lclavicle rclavicle
    lowerneck upperneck
    upperneck head
    lclavicle lhumerus
    lhumerus lradius
    lradius lwrist
    lwrist lhand lthumb
    lhand lfingers
    rclavicle rhumerus
    rhumerus rradius
    rradius rwrist
    rwrist rhand rthumb
    rhand rfingers
  end

#!OML:ASF I:\Random Stuff\random\construction\7_22_03\Session 2\subj1.ASF
:FULLY-SPECIFIED
:DEGREES
580
root -8.6532 17.7344 -5.10925 -142.125 69.3279 -157.152
lowerback 10.9558 1.87026 -6.8335
upperback 5.52483 2.44828 -8.54836
thorax -0.187342 1.51326 -5.41363
lowerneck -17.1955 -0.250881 0.199082
upperneck 43.5796 1.94634 2.49314
head 19.8526 1.85671 1.8803
rclavicle -3.18055e-015 9.54166e-015
rhumerus 39.5046 73.0634 -14.4057
rradius 75.3365
rwrist 7.10084
rhand -18.2195 -3.16148
rfingers 7.12502
rthumb 8.05853 -32.9878
lclavicle -3.18055e-015 9.54166e-015
lhumerus 31.7161 -68.7296 64.3868
lradius 30.5246
lwrist 1.09382
lhand -13.7856 48.9265
lfingers 7.12502
lthumb 12.3359 78.5426
rfemur -8.88576 -3.34863 23.7922
rtibia 1.74931e-014
rfoot -2.38691 -15.752
rtoes -13.6637
lfemur -34.4401 -15.5989 0.27538
ltibia 28.7193
lfoot -11.3756 6.08211
ltoes -39.7918
581
root -8.65088 17.7391 -5.10967 -141.985 69.4019 -157.055
lowerback 10.8495 1.92717 -6.92955
upperback 5.51946 2.52531 -8.52689
thorax -0.135628 1.54771 -5.33978
lowerneck -17.2873 -0.279194 0.155492
upperneck 43.616 1.93518 2.45937
head 19.9047 1.83949 1.87332
rclavicle -3.18055e-015 3.18055e-014
rhumerus 36.8855 73.0483 -16.8445
rradius 75.4166
rwrist 3.82792
rhand -18.0069 -2.83983
rfingers 7.12502
rthumb 8.26367 -32.6582
lclavicle -3.18055e-015 3.18055e-014
lhumerus 31.5656 -68.733 64.5709
lradius 30.5792
lwrist 1.04637
lhand -13.9361 48.9653
lfingers 7.12502
lthumb 12.1907 78.59
rfemur -8.9416 -3.26407 23.7896
rtibia -1.98785e-014
rfoot -2.31033 -15.7551
rtoes -13.9937
lfemur -34.425 -15.4303 0.223333
ltibia 28.683
lfoot -11.2627 5.98931
ltoes -40.1885
582
root -8.6487 17.7452 -5.10999 -141.898 69.4665 -156.988
lowerback 10.7789 1.96777 -7.00443
upperback 5.51939 2.58104 -8.52421
thorax -0.0971503 1.57335 -5.29743
lowerneck -17.37 -0.28165 0.147122
upperneck 43.6221 1.96412 2.38411
head 19.9338 1.83704 1.84539
rclavicle 4.45278e-014 1.145e-013
rhumerus 34.2128 72.9427 -19.4967
rradius 75.6185
rwrist 0.597877
rhand -17.7923 -2.88016
rfingers 7.12502
rthumb 8.47081 -32.6903
lclavicle 4.45278e-014 1.145e-013
lhumerus 31.4216 -68.7428 64.6896
lradius 30.6777
lwrist 1.05523
lhand -14.0746 49.0313
lfingers 7.12502
lthumb 12.0572 78.664
rfemur -8.94324 -3.19577 23.7792
rtibia 2.14687e-014
rfoot -2.34889 -15.7501
rtoes -13.8977
lfemur -34.3615 -15.336 0.182387
ltibia 28.5978
lfoot -11.2057 5.9431
ltoes -40.1058
583
root -8.64795 17.7537 -5.11118 -141.913 69.5361 -156.992
lowerback 10.7718 1.99685 -7.05873
upperback 5.52367 2.6182 -8.53994
thorax -0.0878052 1.5919 -5.28775
lowerneck -17.4298 -0.242803 0.18264
upperneck 43.5931 2.04506 2.291
head 19.932 1.85926 1.80888
rclavicle 4.77083e-015 8.90555e-014
rhumerus 31.9214 72.8189 -21.891
rradius 75.8603
rwrist -2.53502
rhand -17.9143 -3.31237
rfingers 7.12502
rthumb 8.35309 -33.1272
lclavicle 4.77083e-015 8.90555e-014
lhumerus 31.2476 -68.7494 64.8049
lradius 30.7997
lwrist 1.07247
lhand -14.1594 48.9486
lfingers 7.12502
lthumb 11.9754 78.5861
rfemur -8.81862 -3.14381 23.7306
rtibia 8.74653e-015
rfoot -2.70031 -15.7309
rtoes -12.1828
lfemur -34.2712 -15.2882 0.109218
ltibia 28.5355
lfoot -11.2005 5.94986
ltoes -40.0401
584
root -8.64904 17.7578 -5.11353 -141.957 69.6413 -157.062
lowerback 10.7467 2.03769 -7.09973
upperback 5.52821 2.6756 -8.57367
thorax -0.0659636 1.62149 -5.3062
lowerneck -17.504 -0.218644 0.182226
upperneck 43.567 2.10269 2.22939
head 19.9361 1.8708 1.79036
rclavicle -5.24792e-014 0
rhumerus 29.5738 72.5764 -24.3722
rradius 76.1348
rwrist -6.12428
rhand -18.0483 -3.95006
rfingers 7.12502
rthumb 8.22369 -33.77
lclavicle -5.24792e-014 0
lhumerus 31.1487 -68.7637 64.8992
lradius 30.8758
lwrist 1.07542
lhand -14.1817 48.8674
lfingers 7.12502
lthumb 11.9539 78.5061
rfemur -8.76037 -3.07881 23.6314
rtibia -2.54444e-014
rfoot -2.95273 -15.7278
rtoes -10.8196
lfemur -34.2214 -15.1894 -0.0140259
ltibia 28.4755
lfoot -11.1685 5.93941
ltoes -40.2464
585
root -8.65094 17.7501 -5.11735 -142.08 69.7064 -157.185
lowerback 10.746 2.05652 -7.08152
upperback 5.55812 2.71259 -8.62838
thorax -0.0279655 1.64374 -5.37879
lowerneck -17.5886 -0.216903 0.139832
upperneck 43.5391 2.10458 2.24117
head 19.9414 1.8636 1.80444
rclavicle 5.24792e-014 8.90555e-014
rhumerus 26.9536 72.0958 -27.2143
rradius 76.4388
rwrist -10.5167
rhand -17.958 -4.80372
rfingers 7.12502
rthumb 8.31091 -34.6202
lclavicle 5.24792e-014 8.90555e-014
lhumerus 31.1386 -68.7788 64.9033
lradius 30.907
lwrist 1.02698
lhand -14.1455 48.9328
lfingers 7.12502
lthumb 11.9888 78.5695
rfemur -8.84216 -3.06405 23.5178
rtibia 2.3059e-014
rfoot -2.69315 -15.7436
rtoes -11.6883
lfemur -34.1722 -15.2376 -0.0977495
ltibia 28.3735
lfoot -11.0868 6.0118
ltoes -40.3814
586
root -8.65307 17.7513 -5.12027 -142.112 69.7408 -157.219
lowerback 10.7235 2.0546 -7.03212
upperback 5.58579 2.72737 -8.69182
thorax 0.0202141 1.65554 -5.47469
lowerneck -17.6386 -0.196948 0.137164
upperneck 43.502 2.09921 2.29748
head 19.93 1.86697 1.83068
rclavicle -6.83819e-014 5.08889e-014
rhumerus 24.1809 71.4215 -30.3063
rradius 76.7958
rwrist -15.3339
rhand -17.994 -5.82229
rfingers 7.12502
rthumb 8.27615 -35.6402
lclavicle -6.83819e-014 5.08889e-014
lhumerus 31.3279 -68.8558 64.6239
lradius 30.9587
lwrist 1.02845
lhand -14.1037 48.9718
lfingers 7.12502
lthumb 12.0291 78.6061
rfemur -8.85926 -3.04724 23.4777
rtibia 7.95139e-015
rfoot -2.628 -15.7428
rtoes -11.7386
lfemur -34.1305 -15.1257 -0.184084
ltibia 28.3013
lfoot -11.0452 5.925
ltoes -40.3394
587
root -8.65536 17.7639 -5.12292 -142.062 69.7683 -157.16
lowerback 10.7376 2.0629 -6.96996
upperback 5.58994 2.74696 -8.74676
thorax 0.0235022 1.66951 -5.57185
lowerneck -17.6652 -0.182101 0.198229
upperneck 43.4951 2.09304 2.30357
head 19.9341 1.8753 1.82159
rclavicle 1.11319e-014 1.30403e-013
rhumerus 21.5094 70.6592 -33.2633
rradius 77.1962
rwrist -20.2349
rhand -18.4039 -6.92682
rfingers 7.12502
rthumb 7.8805 -36.7599
lclavicle 1.11319e-014 1.30403e-013
lhumerus 31.6976 -69.0254 64.1336
lradius 31.0372
lwrist 1.15023
lhand -14.1029 49.0023
lfingers 7.12502
lthumb 12.0299 78.6366
rfemur -8.7176 -3.00983 23.4938
rtibia -3.18055e-014
rfoot -3.01798 -15.749
rtoes -9.89095
lfemur -34.1189 -15.1668 -0.178524
ltibia 28.3391
lfoot -11.1013 6.00978
ltoes -40.0935
588
root -8.65762 17.764 -5.12584 -141.998 69.7858 -157.081
lowerback 10.7711 2.0881 -6.91717
upperback 5.58583 2.7819 -8.77242
thorax 0.00607129 1.68949 -5.63514
lowerneck -17.6724 -0.20686 0.269659
upperneck 43.5218 2.06504 2.23009
head 19.9574 1.8671 1.76792
rclavicle 6.36111e-014 6.67916e-014
rhumerus 19.2098 69.8134 -35.7823
rradius 77.5578
rwrist -25.2836
rhand -18.853 -8.20364
rfingers 7.12502
rthumb 7.447 -38.0526
lclavicle 6.36111e-014 6.67916e-014
lhumerus 32.0134 -69.1871 63.7838
lradius 31.0953
lwrist 1.31117
lhand -14.106 49.1444
lfingers 7.12502
lthumb 12.0269 78.7788
rfemur -8.71489 -2.98056 23.5046
rtibia -1.59028e-015
rfoot -2.96049 -15.7893
rtoes -10.2963
lfemur -34.0979 -15.4838 -0.0523266
ltibia 28.301
lfoot -11.0761 6.34122
ltoes -39.887
589
root -8.66031 17.748 -5.13007 -142.014 69.8232 -157.1
lowerback 10.7789 2.11584 -6.91545
upperback 5.58241 2.81926 -8.79514
thorax 0.00163673 1.70951 -5.66544
lowerneck -17.6394 -0.227823 0.312385
upperneck 43.5439 2.04328 2.18905
head 19.9645 1.8619 1.73588
rclavicle -1.74931e-014 1.46306e-013
rhumerus 17.234 68.8551 -37.9517
rradius 77.8852
rwrist -30.4595
rhand -19.0599 -9.61075
rfingers 7.12502
rthumb 7.24737 -39.4666
lclavicle -1.74931e-014 1.46306e-013
lhumerus 31.6809 -69.0951 64.2175
lradius 31.0485
lwrist 1.21185
lhand -14.0164 49.165
lfingers 7.12502
lthumb 12.1133 78.7943
rfemur -8.95254 -2.9617 23.4541
rtibia 7.15625e-015
rfoot -2.14056 -15.8636
rtoes -14.634
lfemur -34.1282 -15.3538 -0.13276
ltibia 28.34
lfoot -11.0512 6.20828
ltoes -39.8797
590
root -8.66279 17.7572 -5.1345 -142.163 69.8962 -157.232
lowerback 10.8157 2.13265 -6.9907
upperback 5.57078 2.83263 -8.8352
thorax -0.0300161 1.71757 -5.67081
lowerneck -17.5893 -0.208954 0.343944
upperneck 43.5641 2.05342 2.23284
head 19.9628 1.8795 1.75461
rclavicle 4.77083e-015 6.36111e-015
rhumerus 15.6264 67.8625 -39.7118
rradius 78.1775
rwrist -35.2115
rhand -19.1125 -10.9439
rfingers 7.12502
rthumb 7.1966 -40.8016
lclavicle 4.77083e-015 6.36111e-015
lhumerus 30.6058 -68.7005 65.4425
lradius 30.8976
lwrist 0.806319
lhand -13.8838 48.9784
lfingers 7.12502
lthumb 12.2411 78.6002
rfemur -8.80423 -2.93981 23.3449
rtibia -2.38542e-015
rfoot -2.60531 -15.8521
rtoes -12.196
lfemur -34.0874 -15.0613 -0.358376
ltibia 28.3909
lfoot -11.1104 5.89629
ltoes -39.7848
591
root -8.66584 17.7475 -5.13871 -142.347 69.9448 -157.396
lowerback 10.8329 2.12709 -7.09749
upperback 5.56697 2.81679 -8.8641
thorax -0.0458756 1.70994 -5.6418
lowerneck -17.5643 -0.188103 0.413701
upperneck 43.618 2.06258 2.26136
head 19.9922 1.90099 1.76099
rclavicle -3.81667e-014 0
rhumerus 14.5107 66.9274 -40.9503
rradius 78.3078
rwrist -38.9519
rhand -19.1554 -11.9383
rfingers 7.12502
rthumb 7.15516 -41.7974
lclavicle -3.81667e-014 0
lhumerus 29.8629 -68.4051 66.2491
lradius 30.796
lwrist 0.526349
lhand -13.8543 48.8601
lfingers 7.12502
lthumb 12.2696 78.4802
rfemur -8.88298 -2.94613 23.2362
rtibia 1.27222e-014
rfoot -2.21437 -15.8552
rtoes -13.8848
lfemur -34.0893 -15.2321 -0.398401
ltibia 28.4312
lfoot -11.1364 6.02493
ltoes -39.6375
592
root -8.66946 17.7487 -5.14366 -142.393 69.9727 -157.464
lowerback 10.7721 2.12649 -7.16999
upperback 5.57615 2.82003 -8.86992
thorax -0.00485679 1.71024 -5.60411
lowerneck -17.5995 -0.18885 0.474009
upperneck 43.6817 2.05482 2.24969
head 20.0473 1.9074 1.74715
rclavicle -1.90833e-014 1.17681e-013
rhumerus 13.8172 66.0518 -41.7322
rradius 78.2238
rwrist -41.6911
rhand -18.8323 -12.6571
rfingers 7.12502
rthumb 7.46699 -42.5053
lclavicle -1.90833e-014 1.17681e-013
lhumerus 29.5506 -68.2663 66.6123
lradius 30.7583
lwrist 0.388866
lhand -13.9571 48.9432
lfingers 7.12502
lthumb 12.1705 78.5691
rfemur -8.93112 -2.94257 23.1814
rtibia -2.38542e-015
rfoot -2.11077 -15.8429
rtoes -14.1498
lfemur -34.0872 -14.7352 -0.630219
ltibia 28.3989
lfoot -11.0998 5.50193
ltoes -39.5643
593
root -8.67397 17.7565 -5.15013 -142.315 70.0159 -157.423
lowerback 10.7253 2.1431 -7.16951
upperback 5.56932 2.84788 -8.88948
thorax 0.0160562 1.72445 -5.62614
lowerneck -17.6335 -0.200201 0.496229
upperneck 43.6927 2.0303 2.24224
head 20.0659 1.90036 1.73559
rclavicle 3.49861e-014 6.99722e-014
rhumerus 13.3679 65.2859 -42.179
rradius 78.0409
rwrist -43.9616
rhand -18.2677 -13.4363
rfingers 7.12502
rthumb 8.012 -43.2645
lclavicle 3.49861e-014 6.99722e-014
lhumerus 29.2841 -68.1897 66.9045
lradius 30.7836
lwrist 0.352522
lhand -14.1039 49.0267
lfingers 7.12502
lthumb 12.029 78.661
rfemur -8.90034 -2.90374 23.1428
rtibia -3.18055e-015
rfoot -2.42821 -15.8177
rtoes -12.3384
lfemur -34.1519 -15.0037 -0.545074
ltibia 28.4389
lfoot -11.1241 5.81589
ltoes -39.3797
594
root -8.67887 17.7513 -5.15743 -142.236 70.0396 -157.355
lowerback 10.7284 2.16569 -7.10898
upperback 5.55581 2.8829 -8.92936
thorax 0.00645933 1.74486 -5.70776
lowerneck -17.6343 -0.236503 0.507448
upperneck 43.6816 1.94526 2.28266
head 20.0598 1.87552 1.73538
rclavicle 3.18055e-014 -2.8625e-014
rhumerus 12.9502 64.6897 -42.4676
rradius 77.8898
rwrist -46.7646
rhand -18.1887 -14.1864
rfingers 7.12502
rthumb 8.08818 -44.0116
lclavicle 3.18055e-014 -2.8625e-014
lhumerus 29.6889 -68.4739 66.3454
lradius 30.9927
lwrist 0.701067
lhand -14.2915 49.0566
lfingers 7.12502
lthumb 11.848 78.7015
rfemur -8.9964 -2.88002 23.1077
rtibia 1.03368e-014
rfoot -2.20732 -15.809
rtoes -13.1951
lfemur -34.1736 -15.0833 -0.517721
ltibia 28.4412
lfoot -11.1319 5.92606
ltoes -39.3085
